# xmcd
#
# Track frame offsets:
# 150
# 17472
# 30470
# 45875
# 59152
# 73897
# 96275
# 110565
# 122880
# 133270
# 148612
# 167802
# 180992
# 195305
#
# Disc length: 2828 seconds
#
#
# Revision: 0
# Processed by: cddbd v1.5.1PL0 Copyright (c) Steve Scherf et al.
# Submitted via: FreeRIP 2.91 
#
DISCID=c40b0a0e
DTITLE=Sick'n Blues - Hot Black Coffee
DYEAR=1997
DGENRE=Blues
TTITLE0=Got a mind to travel
TTITLE1=Everybody's going out
TTITLE2=You don't care
TTITLE3=Hot black coffee
TTITLE4=Bending the rules
TTITLE5=Love me with a feeling
TTITLE6=Checking up on my baby
TTITLE7=Fit for life
TTITLE8=Satuday night's boogie woogie man
TTITLE9=Frosty
TTITLE10=Nothing left for mr right
TTITLE11=Without my baby
TTITLE12=Don't let me down
TTITLE13=Crazy mixed up world
EXTD=
EXTT0=
EXTT1=
EXTT2=
EXTT3=
EXTT4=
EXTT5=
EXTT6=
EXTT7=
EXTT8=
EXTT9=
EXTT10=
EXTT11=
EXTT12=
EXTT13=
PLAYORDER=
